<?xml version="1.0" standalone="no"?>
<!DOCTYPE svg PUBLIC "-//W3C//DTD SVG 20010904//EN"
 "http://www.w3.org/TR/2001/REC-SVG-20010904/DTD/svg10.dtd">
<svg version="1.0" xmlns="http://www.w3.org/2000/svg"
 width="330.000000pt" height="471.000000pt" viewBox="0 0 330.000000 471.000000"
 preserveAspectRatio="xMidYMid meet">
<metadata>
Created by potrace 1.16, written by Peter Selinger 2001-2019
</metadata>
<g transform="translate(0.000000,471.000000) scale(0.100000,-0.100000)"
fill="#000000" stroke="none">
<path d="M1645 4690 c-53 -35 -145 -193 -145 -249 0 -32 32 -97 47 -94 6 1 10
-5 9 -15 -1 -12 6 -16 24 -14 19 1 21 0 10 -7 -11 -8 -2 -16 43 -37 50 -22 67
-25 118 -20 33 4 75 14 94 23 35 16 75 70 75 99 0 8 3 14 8 14 4 0 19 20 35
44 58 93 28 184 -85 254 -49 30 -188 32 -233 2z m120 -182 c15 -7 24 -17 21
-25 -3 -8 2 -13 13 -13 15 0 20 -9 23 -40 2 -22 1 -40 -3 -40 -3 0 -12 -11
-19 -25 -7 -14 -16 -23 -18 -20 -3 3 -11 0 -18 -6 -23 -19 -101 -1 -133 30
-46 45 -30 120 29 144 26 10 78 7 105 -5z"/>
<path d="M2007 4159 c15 -40 15 -43 -2 -55 -31 -23 -124 -54 -161 -54 -31 0
-37 4 -50 36 -14 33 -17 35 -31 21 -9 -8 -17 -26 -18 -40 -2 -14 -13 -39 -25
-55 -30 -40 -38 -116 -16 -141 9 -9 13 -21 10 -24 -4 -4 -2 -12 3 -19 6 -7 23
-45 38 -85 23 -60 33 -74 58 -83 17 -5 28 -13 25 -16 -6 -5 1 -35 76 -299 60
-211 59 -353 -2 -535 -41 -124 -122 -266 -209 -369 l-30 -35 -59 36 c-273 164
-516 191 -739 83 -148 -72 -259 -197 -324 -363 -16 -44 -55 -175 -85 -293 -31
-124 -60 -217 -69 -224 -19 -14 -61 -216 -52 -254 3 -16 22 -47 41 -69 18 -22
34 -45 34 -50 0 -6 8 -18 17 -28 16 -15 18 -14 28 22 13 46 37 53 126 34 79
-17 82 -19 71 -68 -10 -40 -9 -41 12 -30 11 6 25 17 29 24 4 8 15 14 23 14 24
0 91 38 98 55 11 31 46 208 46 237 0 16 -5 38 -10 48 -17 33 63 366 111 460
57 114 200 157 319 95 l31 -16 -26 -42 c-70 -113 -111 -241 -101 -318 17 -127
86 -246 220 -380 l86 -87 -168 -158 c-515 -488 -499 -474 -540 -474 -27 0 -45
-11 -87 -51 -30 -28 -63 -58 -74 -66 -15 -10 -21 -25 -21 -54 0 -34 -3 -39
-23 -39 -42 0 -145 -59 -180 -103 -43 -54 -59 -94 -59 -150 0 -57 22 -98 80
-154 l47 -43 199 2 200 3 24 35 c13 19 26 47 29 63 4 21 11 27 33 27 15 0 40
10 56 22 56 42 124 112 124 129 0 18 50 65 458 433 l264 237 81 -78 c45 -42
159 -149 252 -238 94 -89 200 -190 238 -225 48 -46 67 -71 67 -89 0 -19 24
-51 85 -114 75 -78 88 -87 122 -88 21 -1 42 -1 47 0 5 1 6 -5 3 -13 -6 -15 21
-56 58 -89 18 -15 38 -17 171 -15 l151 3 45 35 c25 19 58 55 73 79 54 89 41
244 -27 322 -25 28 -78 59 -103 59 -10 0 -15 10 -15 30 0 23 -17 48 -76 112
-41 46 -88 88 -104 93 -26 10 -87 59 -215 176 -95 87 -352 316 -400 358 -26
22 -295 262 -333 296 -11 10 -7 25 23 85 70 140 83 238 44 350 -20 59 -20 61
-2 90 127 202 163 265 222 385 133 268 171 403 171 598 0 199 -41 388 -132
610 -34 84 -39 103 -29 123 19 42 13 75 -37 199 -43 107 -52 122 -83 137 -19
10 -48 18 -65 18 -18 0 -38 8 -49 20 -10 11 -26 20 -36 20 -18 0 -18 -2 -2
-41z m-1327 -3821 c105 -71 20 -228 -123 -228 -85 0 -131 80 -91 162 37 78
147 111 214 66z m2305 10 c14 -6 25 -17 25 -24 0 -7 5 -14 12 -16 6 -2 13 -28
14 -58 3 -40 -2 -62 -18 -92 -12 -21 -28 -38 -35 -38 -7 0 -13 -5 -13 -11 0
-7 -10 -9 -25 -7 -13 3 -26 1 -27 -3 -2 -5 -18 0 -36 11 -18 11 -31 24 -28 29
3 5 0 11 -8 14 -32 12 -23 126 14 170 29 36 80 46 125 25z"/>
<path d="M1350 3456 c-175 -49 -290 -202 -290 -386 0 -165 79 -290 230 -363
60 -29 73 -32 165 -32 93 0 105 2 168 33 76 38 156 113 186 175 55 113 60 213
19 327 -69 188 -285 299 -478 246z"/>
<path d="M430 1201 c-73 -23 -137 -76 -171 -144 -17 -31 -20 -54 -17 -99 4
-57 6 -61 74 -129 95 -97 143 -124 219 -124 131 1 256 116 255 236 -1 42 -36
102 -102 171 -36 37 -81 74 -101 83 -38 16 -115 19 -157 6z m140 -113 c25 -29
26 -95 3 -128 -30 -43 -56 -59 -109 -65 -80 -11 -124 21 -124 88 0 54 17 86
60 115 30 20 43 23 93 19 44 -4 62 -10 77 -29z"/>
</g>
</svg>
