<?xml version="1.0" encoding="utf-8"?>
<!-- Generator: Adobe Illustrator 21.0.2, SVG Export Plug-In . SVG Version: 6.00 Build 0)  -->
<svg version="1.1" id="Layer_1" xmlns="http://www.w3.org/2000/svg" xmlns:xlink="http://www.w3.org/1999/xlink" x="0px" y="0px"
	 width="340.2px" height="80px" viewBox="0 0 340.2 80" style="enable-background:new 0 0 340.2 80;" xml:space="preserve">
<style type="text/css">
	.st0{fill:#323232;}
	.st1{fill:#FFDB00;}
	.st2{fill:#009FEF;}
	.st3{fill:#FFFFFF;}
</style>
<path class="st0" d="M99.7,44h2.8v5h5.1v-5h2.8v12.6h-2.8v-5.1h-5.1v5.1h-2.8V44z"/>
<path class="st0" d="M124.3,56.7h-2.7v-8.3l-5.5,8.3h-2.6V44h2.7v8.3l5.6-8.3h2.6L124.3,56.7L124.3,56.7z"/>
<path class="st0" d="M127.4,44h5.9c1.4,0,2.6,0.4,3.3,1.1c0.6,0.6,0.9,1.3,0.9,2.2c0,1.4-0.8,2.2-1.7,2.7c1.5,0.6,2.4,1.4,2.4,3.1
	c0,2.3-1.9,3.5-4.7,3.5h-6V44H127.4z M132.6,49.1c1.2,0,2-0.4,2-1.4c0-0.8-0.6-1.3-1.8-1.3h-2.7v2.7H132.6z M133.4,54.2
	c1.2,0,2-0.4,2-1.4c0-0.8-0.6-1.4-2.1-1.4h-3.2v2.8C130.1,54.2,133.4,54.2,133.4,54.2z"/>
<path class="st0" d="M144.3,43.9h2.6l5.4,12.7h-2.9l-1.2-2.8h-5.3l-1.2,2.8h-2.8L144.3,43.9z M147.3,51.4l-1.7-4.1l-1.7,4.1H147.3z"
	/>
<path class="st0" d="M159.7,44h10.5v12.6h-2.8V46.5h-5v10.1h-2.8V44H159.7z"/>
<path class="st0" d="M173.2,44h9.5v2.5H176v2.6h6v2.5h-6v2.7h6.9v2.5h-9.6L173.2,44L173.2,44z"/>
<path class="st0" d="M185.3,44h5.2c3,0,4.8,1.8,4.8,4.4c0,2.9-2.3,4.4-5.1,4.4h-2.1v3.8h-2.8L185.3,44L185.3,44z M190.3,50.4
	c1.4,0,2.2-0.8,2.2-1.9c0-1.2-0.9-1.9-2.3-1.9h-2.1v3.9L190.3,50.4L190.3,50.4z"/>
<path class="st0" d="M197.4,44h9.5v2.5h-6.8v2.6h6v2.5h-6v2.7h6.9v2.5h-9.6L197.4,44L197.4,44z"/>
<path class="st0" d="M219.5,56.7h-2.8v-4h-2.2l-2.7,4h-3.2l3.1-4.5c-1.6-0.6-2.7-1.9-2.7-4c0-2.6,1.8-4.2,4.8-4.2h5.8v12.7H219.5z
	 M216.7,50.2v-3.6h-2.8c-1.4,0-2.2,0.6-2.2,1.8c0,1.1,0.8,1.8,2.1,1.8H216.7z"/>
<path class="st0" d="M221.9,50.4c0-3.6,2.7-6.5,6.6-6.5c2.4,0,3.7,0.9,4.9,2.1l-1.7,1.9c-1-0.9-1.8-1.4-3.2-1.4
	c-2.1,0-3.7,1.8-3.7,4s1.5,4,3.7,4c1.4,0,2.3-0.6,3.3-1.5l1.8,1.9c-1.3,1.4-2.7,2.1-5.2,2.1C224.7,56.9,221.9,54,221.9,50.4z"/>
<path class="st0" d="M246.5,44v12.6h-2.8V46.5h-3.6v1c0,7.4-1.2,9.3-4.1,9.3c-0.5,0-1.1-0.1-1.5-0.2l0.2-2.3c0.1,0,0.3,0,0.4,0
	c1.5,0,2.3-1,2.3-7.8V44H246.5z"/>
<path class="st0" d="M253.9,43.9h2.6l5.4,12.7H259l-1.2-2.8h-5.3l-1.2,2.8h-2.8L253.9,43.9z M256.8,51.4l-1.7-4.1l-1.7,4.1H256.8z"
	/>
<path class="st0" d="M263.8,44h5.9c1.4,0,2.6,0.4,3.3,1.1c0.6,0.6,0.9,1.3,0.9,2.2c0,1.4-0.8,2.2-1.7,2.7c1.5,0.6,2.4,1.4,2.4,3.1
	c0,2.3-1.9,3.5-4.7,3.5h-6L263.8,44L263.8,44z M269.1,49.1c1.2,0,2-0.4,2-1.4c0-0.8-0.6-1.3-1.8-1.3h-2.7v2.7H269.1z M269.8,54.2
	c1.2,0,2-0.4,2-1.4c0-0.8-0.6-1.4-2.1-1.4h-3.2v2.8C266.5,54.2,269.8,54.2,269.8,54.2z"/>
<path class="st0" d="M293,56.7h-16.2V44h2.8v10.1h4.5V44h2.8v10.1h4.5V44h2.8v10.1h1.5l-0.4,5.1H293V56.7z"/>
<path class="st0" d="M308.5,56.7h-2.7v-8.3l-5.5,8.3h-2.6V44h2.7v8.3L306,44h2.6v12.7H308.5z"/>
<path class="st0" d="M311.5,44h2.8v5h5.1v-5h2.8v12.6h-2.8v-5.1h-5.1v5.1h-2.8V44z"/>
<path class="st0" d="M336.1,56.7h-2.7v-8.3l-5.5,8.3h-2.6V44h2.7v8.3l5.6-8.3h2.6v12.7H336.1z"/>
<g>
	<path class="st0" d="M99.8,22.7h6.7v1.1H101v9.4h-1.2V22.7z"/>
	<path class="st0" d="M106.3,25.4h1.2V27c0.6-0.9,1.5-1.7,3-1.7c1.9,0,3.7,1.5,3.7,4.1c0,2.5-1.8,4-3.7,4c-1.4,0-2.4-0.8-3-1.7v3.9
		h-1.2V25.4z M112.9,29.3c0-1.8-1.3-3-2.7-3c-1.4,0-2.8,1.2-2.8,3s1.4,3,2.8,3C111.7,32.3,112.9,31.2,112.9,29.3z"/>
	<path class="st0" d="M115.5,35.3l0.4-0.9c0.4,0.2,0.7,0.3,1.2,0.3c0.7,0,1.1-0.4,1.6-1.5l-3.5-7.7h1.3l2.8,6.5l2.5-6.5h1.2l-3.3,8
		c-0.7,1.6-1.4,2.2-2.6,2.2C116.5,35.7,116,35.5,115.5,35.3z"/>
	<path class="st0" d="M124.8,25.4h6.7v7.8h-1.2v-6.8H126v6.8h-1.2V25.4z"/>
	<path class="st0" d="M133.6,30.9c0-1.7,1.4-2.5,3.3-2.5c1,0,1.7,0.1,2.4,0.3v-0.2c0-1.4-0.8-2.1-2.3-2.1c-0.9,0-1.6,0.2-2.4,0.6
		l-0.3-0.9c0.9-0.4,1.7-0.7,2.8-0.7s2,0.3,2.5,0.9c0.5,0.5,0.8,1.3,0.8,2.3v4.8h-1.1V32c-0.5,0.7-1.4,1.3-2.8,1.3
		C135,33.4,133.6,32.5,133.6,30.9z M139.3,30.3v-0.7c-0.6-0.2-1.3-0.3-2.3-0.3c-1.4,0-2.3,0.6-2.3,1.6s0.9,1.5,2,1.5
		C138.1,32.4,139.3,31.6,139.3,30.3z"/>
	<path class="st0" d="M147.4,25.4h1.2v4.5l4.3-4.5h1.4l-3.3,3.4l3.3,4.4h-1.4l-2.8-3.6l-1.6,1.7v1.9h-1.2v-7.8
		C147.3,25.4,147.4,25.4,147.4,25.4z"/>
	<path class="st0" d="M155,29.3c0-2.2,1.7-4.1,4.1-4.1c2.3,0,4,1.8,4,4.1c0,2.2-1.7,4.1-4.1,4.1C156.7,33.4,155,31.5,155,29.3z
		 M161.9,29.3c0-1.7-1.2-3-2.9-3s-2.8,1.4-2.8,3c0,1.7,1.2,3,2.9,3C160.7,32.3,161.9,31,161.9,29.3z"/>
	<path class="st0" d="M165.2,25.4h1.1l2.9,4.1l2.9-4.1h1.1v7.8H172v-5.9l-2.9,3.9l-2.8-3.9v5.9h-1.1V25.4z"/>
	<path class="st0" d="M175.8,25.4h6.7v7.8h-1.2v-6.8h-4.4v6.8h-1.2L175.8,25.4L175.8,25.4z"/>
	<path class="st0" d="M184.5,30.9c0-1.7,1.4-2.5,3.3-2.5c1,0,1.7,0.1,2.4,0.3v-0.2c0-1.4-0.8-2.1-2.3-2.1c-0.9,0-1.6,0.2-2.4,0.6
		l-0.3-0.9c0.9-0.4,1.7-0.7,2.8-0.7s2,0.3,2.5,0.9c0.5,0.5,0.8,1.3,0.8,2.3v4.8h-1.1V32c-0.5,0.7-1.4,1.3-2.8,1.3
		C186,33.4,184.5,32.5,184.5,30.9z M190.2,30.3v-0.7c-0.6-0.2-1.3-0.3-2.3-0.3c-1.4,0-2.3,0.6-2.3,1.6s0.9,1.5,2,1.5
		C189.1,32.4,190.2,31.6,190.2,30.3z"/>
	<path class="st0" d="M193.8,25.4h1.2v3.4h4.5v-3.4h1.2v7.8h-1.2v-3.4H195v3.4h-1.2V25.4z"/>
	<path class="st0" d="M203.2,22.4h1.3v1.3h-1.3V22.4z M203.3,25.4h1.2v7.8h-1.2V25.4z"/>
	<path class="st0" d="M207.2,25.4h1.2v6.2l4.6-6.2h1.1v7.8h-1.2V27l-4.6,6.2h-1.1V25.4z M208.4,22.5l0.8-0.2
		c0.2,0.6,0.6,1.1,1.3,1.1s1.1-0.4,1.3-1.1l0.8,0.2c-0.2,1.1-1,1.8-2.1,1.8S208.6,23.5,208.4,22.5z"/>
</g>
<path class="st1" d="M36.6,41.1L12,41l0,0c0,13.5,11.1,24.5,24.5,24.5s24.6-11,24.6-24.5L36.6,41.1L36.6,41.1z"/>
<path class="st2" d="M36.4,41.1H11.9l0,0c0-13.5,11.1-24.5,24.5-24.5S61,27.7,61,41.1H36.4z"/>
<path class="st1" d="M60.7,56.4L60.7,56.4L60.7,56.4c-0.7,1-1.4,2.1-2.2,3.1s-1.6,1.8-2.5,2.7c-4.6,4.3-10.4,7.2-16.7,8l-0.1-1
	c6-0.8,11.6-3.4,16.1-7.6c0.9-0.9,1.6-1.7,2.4-2.6c0.8-0.9,1.4-1.8,2.1-3l0,0l0,0L60.7,56.4z"/>
<path class="st1" d="M66.9,51.7L66.9,51.7L66.9,51.7c-0.6,1.6-1.1,3.2-2.1,4.8c-0.8,1.5-1.7,3-2.7,4.3c-5.1,7.1-13.1,11.8-22,13
	l-0.1-1c8.7-1.1,16.3-5.8,21.3-12.7c1-1.3,1.8-2.7,2.6-4.2c0.8-1.5,1.4-3.1,1.9-4.7l0,0l0,0L66.9,51.7z"/>
<path class="st1" d="M71.2,47.7L71.2,47.7c-0.5,2.2-1,4.2-1.7,6.3c-0.8,2.1-1.6,3.9-2.7,5.7c-5.5,9.4-15.1,16-26.2,17.5l-0.1-1
	c10.8-1.5,20.1-7.8,25.4-16.9c1-1.7,1.9-3.7,2.6-5.6c0.8-1.9,1.3-4,1.6-6l0,0L71.2,47.7z"/>
<path class="st2" d="M32.2,8.8L32.2,8.8L32.2,8.8c-1.7,0.2-3.3,0.6-5,1c-1.6,0.5-3.1,1-4.7,1.8C14.9,15.3,8.8,22.1,6.1,30.5
	l-0.9-0.3c2.9-8.7,9.1-15.5,17-19.4c1.5-0.8,3.1-1.4,4.9-1.8c1.6-0.6,3.3-0.9,5.1-1l0,0l0,0V8.8z"/>
<path class="st2" d="M32.7,12.3L32.7,12.3L32.7,12.3L32.7,12.3L32.7,12.3c-1.1,0.1-2.4,0.3-3.4,0.7c-1.1,0.3-2.3,0.7-3.3,1
	c-5.6,2.2-10.4,6.2-13.6,11.3l-0.9-0.6c3.3-5.4,8.3-9.4,14-11.6c1-0.5,2.3-0.9,3.4-1c1.1-0.3,2.4-0.6,3.5-0.7l0,0l0,0l0.1,0.6
	l-0.1-0.6l0,0L32.7,12.3z"/>
<path class="st2" d="M31.5,4.7l0.1,0.9l0,0L31.5,5l0.1,0.6C29.5,6,27.4,6.4,25.5,7c-1.9,0.8-3.8,1.6-5.6,2.6c-9.4,5-16.1,14-18,24.9
	l-1-0.2c1.9-11.1,9-20.4,18.5-25.6c1.8-1,3.8-1.8,5.8-2.5C27.2,5.5,29.4,5.1,31.5,4.7L31.5,4.7L31.5,4.7L31.5,4.7L31.5,4.7L31.5,4.7
	L31.5,4.7z M31.5,5l0.1,0.9L31.5,5z"/>
<path class="st2" d="M66.7,29c0.1-0.9,0.2-5.1,1-5.8c1,1.9,2.2,4.3,2.7,6.5c0.2,1.3-2.3,3.8-2.2,6c-0.2-1.5-3.1-4.3-4.7-4.1
	c-0.5-1.6-1.3-3.4-2.1-5C62.3,26.7,64.6,26.7,66.7,29"/>
<path class="st2" d="M62.3,21.3c-0.1-0.9-1.1-4.9-0.7-5.8c1.6,1.6,3.3,3.5,4.6,5.5c0.6,1.1-1,4.2-0.3,6.5c-0.7-1.4-4.2-3.2-5.6-2.6
	c-0.9-1.4-2.3-3.1-3.4-4.2C57.4,20.2,59.6,19.6,62.3,21.3"/>
<path class="st2" d="M56,14.7c-0.5-0.8-2.6-4.3-2.3-5.4c1.9,1,4.2,2.5,5.8,4c0.9,1,0.2,4.4,1.5,6.3c-1-1.1-5-1.8-6.2-0.9
	c-1.3-1.1-3.1-2.2-4.6-3.1C50.9,15.2,52.9,13.9,56,14.7"/>
<path class="st2" d="M47.9,10.2c-0.6-0.7-3.7-3.4-3.7-4.7C46.4,6,49,6.7,50.9,7.7c1,0.8,1.4,4.2,3.2,5.6c-1.3-0.9-5.2-0.5-6.2,0.9
	c-1.5-0.8-3.5-1.3-5.1-1.6C43.2,12,44.7,10.3,47.9,10.2"/>
<path class="st2" d="M38.4,8.3C37.6,7.8,33.8,6,33.5,5c2.3-0.2,4.9-0.2,7.2,0.1c1.1,0.3,2.5,3.5,4.7,4.4c-1.5-0.5-5.1,1-5.6,2.6
	C38,11.9,36,11.9,34.4,12C34.4,11.3,35.3,9.3,38.4,8.3"/>
<path class="st1" d="M33.8,73.6c0.8,0.5,4.6,2.3,4.9,3.3c-2.3,0.2-4.9,0.2-7.2-0.1c-1.3-0.5-2.6-3.5-4.8-4.4c1.5,0.5,5.1-1,5.6-2.6
	c1.7,0.2,3.8,0.2,5.4,0.1C37.7,70.6,36.7,72.6,33.8,73.6"/>
<path class="st1" d="M24.2,71.6c0.6,0.7,3.7,3.4,3.7,4.7c-2.2-0.5-4.8-1.1-6.7-2.2c-1-0.8-1.4-4.2-3.2-5.6c1.3,0.9,5.2,0.5,6.2-0.9
	c1.5,0.8,3.5,1.3,5.1,1.6C28.9,69.9,27.4,71.5,24.2,71.6"/>
<path class="st1" d="M16.1,67.1c0.5,0.8,2.6,4.3,2.3,5.4c-1.9-1-4.2-2.5-5.8-4c-0.9-1-0.2-4.4-1.5-6.3c1,1.1,5,1.8,6.2,0.9
	c1.3,1.1,3.1,2.2,4.6,3.1C21.2,66.6,19.2,67.9,16.1,67.1"/>
<path class="st1" d="M9.9,60.6c0.1,0.9,1.1,4.9,0.7,5.8C9,64.9,7.2,62.9,6,61c-0.6-1.1,1-4.2,0.3-6.5c0.7,1.4,4.2,3.2,5.6,2.6
	c0.9,1.4,2.3,3.1,3.4,4.2C14.7,61.7,12.4,62.2,9.9,60.6"/>
<path class="st1" d="M5.3,51.6c-0.1,0.9-0.2,5.1-1,5.7c-1-1.9-2.2-4.3-2.7-6.5c-0.2-1.3,2.3-3.8,2.2-6c0.2,1.5,3.1,4.3,4.7,4.1
	c0.5,1.6,1.3,3.4,2.1,5C9.8,53.9,7.5,53.9,5.3,51.6"/>
<path class="st3" d="M24.7,42.3V51h-0.2H20V30.6h0.2h4.4v7.6h6.5v-7.6h0.2h4.4v20.3h-0.2h-4.4v-8.8L24.7,42.3
	C24.7,42.1,24.7,42.3,24.7,42.3z M41.7,34.6V51h-0.2H37V30.6h0.2H53v20.3h-0.2h-4.4V34.6H41.7z"/>
</svg>
